<svg width="25" height="37" viewBox="0 0 25 37" fill="none" xmlns="http://www.w3.org/2000/svg">
<path fill-rule="evenodd" clip-rule="evenodd" d="M12.6935 10.7166C13.2684 11.48 14.2947 12.0398 15.9959 11.8144C18.9828 11.4188 21.2942 12.3054 22.681 14.0037C24.0335 15.6602 24.3441 17.8967 23.7617 19.9024C23.1731 21.9291 21.6597 23.7869 19.2819 24.7181C16.9075 25.6479 13.8176 25.6011 10.1274 24.1348C6.92187 22.861 5.07843 23.0675 4.08635 23.6416C3.11844 24.2018 2.55157 25.3562 2.49202 26.9893C2.43302 28.6072 2.8974 30.4501 3.69576 31.9397C4.52215 33.4817 5.53482 34.3462 6.37988 34.5141L5.89007 36.9259C3.95015 36.5405 2.45234 34.872 1.49831 33.0919C0.516245 31.2596 -0.0697409 28.9917 0.0065152 26.9006C0.0822147 24.8248 0.836226 22.6724 2.83037 21.5184C4.80034 20.3783 7.56013 20.4635 11.0546 21.8521C14.3268 23.1524 16.7373 23.0687 18.3663 22.4308C19.9919 21.7942 20.985 20.5534 21.3712 19.2233C21.7635 17.8721 21.517 16.4935 20.7461 15.5494C20.0093 14.6471 18.6306 13.9474 16.326 14.2527C13.8496 14.5807 11.8821 13.7571 10.699 12.1861C9.55805 10.6712 9.2799 8.63877 9.72796 6.73692C10.1805 4.81598 11.3896 2.93346 13.3653 1.65515C15.3507 0.370631 18.0297 -0.253864 21.3427 0.194925L21.0052 2.63217C18.1911 2.25097 16.1357 2.80231 14.7268 3.71383C13.3084 4.63157 12.4635 5.9653 12.1502 7.2952C11.8324 8.64417 12.0764 9.89715 12.6935 10.7166Z" fill="black"/>
</svg>
