<svg width="43" height="65" viewBox="0 0 43 65" fill="none" xmlns="http://www.w3.org/2000/svg">
<path fill-rule="evenodd" clip-rule="evenodd" d="M22.937 19.1797C23.9308 20.5139 25.705 21.4922 28.6457 21.0984C33.8091 20.407 37.8047 21.9565 40.202 24.9247C42.5402 27.8197 43.077 31.7285 42.0702 35.2339C41.0528 38.7762 38.4365 42.0231 34.3261 43.6505C30.2215 45.2756 24.8802 45.1938 18.501 42.631C12.9597 40.4048 9.77303 40.7658 8.05805 41.7692C6.38485 42.7481 5.40494 44.7658 5.30199 47.62C5.2 50.4475 6.00275 53.6686 7.38285 56.272C8.81142 58.9668 10.562 60.4778 12.0228 60.7713L11.1761 64.9865C7.82262 64.3129 5.23339 61.3967 3.58419 58.2857C1.88652 55.0832 0.873549 51.1196 1.00537 47.465C1.13623 43.8371 2.43967 40.0751 5.88688 38.0582C9.29231 36.0658 14.0631 36.2147 20.1038 38.6415C25.7605 40.9141 29.9274 40.7679 32.7434 39.653C35.5536 38.5404 37.2702 36.3717 37.9378 34.0471C38.6161 31.6856 38.19 29.2762 36.8572 27.6261C35.5836 26.0491 33.2002 24.8263 29.2164 25.3598C24.9356 25.9331 21.5343 24.4938 19.4891 21.7481C17.5168 19.1004 17.036 15.5482 17.8105 12.2243C18.5929 8.86706 20.6829 5.57692 24.0984 3.34279C27.5304 1.09779 32.1615 0.00634587 37.8885 0.790707L37.3051 5.05035C32.4406 4.38411 28.8874 5.34771 26.4519 6.9408C23.9999 8.54475 22.5394 10.8757 21.9978 13.2C21.4484 15.5577 21.8702 17.7475 22.937 19.1797Z" fill="black"/>
</svg>
